<svg xmlns="http://www.w3.org/2000/svg" xmlns:xlink="http://www.w3.org/1999/xlink" width="1024" height="625"><defs><path id="a" d="M0 0h1023.847v640.242H0z"/></defs><g fill="none" fill-rule="evenodd"><path fill="#230F2A" d="M0-10.931h1024v640.518H0z"/><g transform="translate(0 -10.931)"><mask id="b" fill="#fff"><use xlink:href="#a"/></mask><g mask="url(#b)"><path fill="#230F2A" d="M0 .001h1023.848v640.243H0z"/><g fill="#D3BED8"><ellipse cx=".348" cy=".342" rx="1" ry="1" transform="rotate(-23.133 220.455 -634.25)"/><ellipse cx=".348" cy=".342" rx="1" ry="1" transform="rotate(-23.133 452.023 -761.152)"/><ellipse cx=".348" cy=".342" rx="1" ry="1" transform="rotate(-23.133 204.159 -349.241)"/><ellipse cx=".348" cy=".342" rx="1" ry="1" transform="rotate(-23.133 385.91 -15.504)"/><ellipse cx=".348" cy=".342" rx="1" ry="1" transform="rotate(-23.133 445.523 -312.393)"/><ellipse cx=".348" cy=".342" rx="1" ry="1" transform="rotate(-23.133 666.886 -630.347)"/><ellipse cx=".348" cy=".342" rx="1" ry="1" transform="rotate(-23.133 651.181 -353.083)"/><ellipse cx=".348" cy=".342" rx="1" ry="1" transform="rotate(-23.133 617.291 -88.798)"/><ellipse cx=".348" cy=".342" rx="1" ry="1" transform="rotate(-23.133 808.009 -.523)"/></g><g fill="#FAD8DF"><path d="M109.425 183.105a.069.069 0 0 1 .04-.055.069.069 0 0 1 .07.008l.626.471a.07.07 0 0 0 .031.013l.763.122a.07.07 0 0 1 .053.043.07.07 0 0 1-.006.068l-.44.635a.07.07 0 0 0-.011.031l-.093.779a.069.069 0 0 1-.042.055.069.069 0 0 1-.068-.008c-.178-.134-.55-.414-.627-.47a.07.07 0 0 0-.031-.014l-.763-.122a.07.07 0 0 1-.053-.042.07.07 0 0 1 .006-.068l.44-.636a.07.07 0 0 0 .011-.031l.094-.779zM172.706 265.151a.069.069 0 0 1 .04-.055.069.069 0 0 1 .07.008l.626.47a.07.07 0 0 0 .031.014l.763.122a.07.07 0 0 1 .053.042.07.07 0 0 1-.006.068l-.44.636a.07.07 0 0 0-.01.031l-.094.779a.069.069 0 0 1-.042.055.069.069 0 0 1-.068-.009l-.627-.47a.07.07 0 0 0-.031-.013l-.762-.122a.07.07 0 0 1-.054-.043.07.07 0 0 1 .006-.068l.44-.635a.07.07 0 0 0 .011-.031l.094-.779zM241.872 190.69a.069.069 0 0 1 .04-.055.069.069 0 0 1 .07.009l.626.47a.07.07 0 0 0 .031.014l.763.122a.07.07 0 0 1 .053.042.07.07 0 0 1-.006.068c-.123.178-.385.558-.44.635a.07.07 0 0 0-.011.032l-.093.779a.069.069 0 0 1-.042.055.069.069 0 0 1-.068-.009l-.627-.47a.07.07 0 0 0-.031-.014l-.763-.122a.07.07 0 0 1-.053-.042.07.07 0 0 1 .006-.068l.44-.635a.07.07 0 0 0 .011-.032l.094-.778zM348.018 188.269a.069.069 0 0 1 .04-.056.069.069 0 0 1 .07.009l.627.47a.07.07 0 0 0 .03.014l.763.122a.07.07 0 0 1 .054.042.07.07 0 0 1-.007.068l-.439.635a.07.07 0 0 0-.012.032l-.093.778a.069.069 0 0 1-.041.056.069.069 0 0 1-.069-.009l-.627-.47a.07.07 0 0 0-.03-.014l-.763-.122a.07.07 0 0 1-.054-.042.07.07 0 0 1 .007-.068l.439-.635a.07.07 0 0 0 .011-.032l.094-.778zM270.769 113.741a.069.069 0 0 1 .041-.055.069.069 0 0 1 .068.009l.628.47a.07.07 0 0 0 .03.014l.763.121a.07.07 0 0 1 .054.043.07.07 0 0 1-.007.068l-.439.635a.07.07 0 0 0-.012.032l-.093.778a.069.069 0 0 1-.041.056.069.069 0 0 1-.069-.009l-.627-.47a.07.07 0 0 0-.03-.014l-.763-.122a.07.07 0 0 1-.054-.042.07.07 0 0 1 .007-.068l.439-.636a.07.07 0 0 0 .011-.031l.094-.779zM102.42 72.329a.069.069 0 0 1 .04-.055.069.069 0 0 1 .069.008l.627.47a.07.07 0 0 0 .03.014l.763.122a.07.07 0 0 1 .054.042.07.07 0 0 1-.007.068l-.439.636a.07.07 0 0 0-.011.031l-.094.779a.069.069 0 0 1-.041.055.069.069 0 0 1-.068-.009l-.628-.47a.07.07 0 0 0-.03-.013l-.763-.122a.07.07 0 0 1-.054-.043.07.07 0 0 1 .007-.068l.439-.635a.07.07 0 0 0 .012-.032l.093-.778zM-.054 138.245a.069.069 0 0 1 .041-.055.069.069 0 0 1 .068.008l.628.471a.07.07 0 0 0 .03.013l.763.122a.07.07 0 0 1 .054.043.07.07 0 0 1-.007.068l-.439.635a.07.07 0 0 0-.012.031l-.093.779a.069.069 0 0 1-.041.055.069.069 0 0 1-.069-.008l-.627-.471a.07.07 0 0 0-.03-.013l-.763-.122a.07.07 0 0 1-.054-.042.07.07 0 0 1 .007-.069l.439-.635a.07.07 0 0 0 .011-.031l.094-.779zM64.794 277.487a.069.069 0 0 1 .041-.055.069.069 0 0 1 .069.008l.627.47a.07.07 0 0 0 .03.014l.763.122a.07.07 0 0 1 .054.042.07.07 0 0 1-.006.068l-.44.636a.07.07 0 0 0-.011.031l-.094.779a.069.069 0 0 1-.04.055.069.069 0 0 1-.07-.009l-.626-.47a.07.07 0 0 0-.031-.014l-.763-.121a.07.07 0 0 1-.054-.043.07.07 0 0 1 .007-.068l.439-.635a.07.07 0 0 0 .012-.032l.093-.778zM255.195 8.997a.069.069 0 0 1 .041-.056.069.069 0 0 1 .069.009l.627.47a.07.07 0 0 0 .03.014l.763.122a.07.07 0 0 1 .054.042.07.07 0 0 1-.007.068l-.439.635a.07.07 0 0 0-.011.032l-.094.778a.069.069 0 0 1-.041.056.069.069 0 0 1-.069-.009l-.627-.47a.07.07 0 0 0-.03-.014l-.763-.122a.07.07 0 0 1-.054-.042.07.07 0 0 1 .007-.068l.439-.635a.07.07 0 0 0 .012-.032l.093-.778zM313.759 53.745a.069.069 0 0 1 .041-.055.069.069 0 0 1 .069.008l.627.471a.07.07 0 0 0 .03.013l.763.122a.07.07 0 0 1 .054.042.07.07 0 0 1-.007.069l-.439.635a.07.07 0 0 0-.012.031l-.093.779a.069.069 0 0 1-.041.055.069.069 0 0 1-.069-.008l-.627-.471a.07.07 0 0 0-.03-.013l-.763-.122a.07.07 0 0 1-.054-.043.07.07 0 0 1 .007-.068l.439-.635a.07.07 0 0 0 .012-.031c.01-.095.066-.558.093-.779z"/></g><g fill="#D3BED8" transform="rotate(150.162 146.818 260.642)"><ellipse cx="347.974" cy="1.647" rx="1.469" ry="1.47"/><ellipse cx=".348" cy=".342" rx="1" ry="1" transform="translate(296.37 34.048)"/><ellipse cx=".348" cy=".342" rx="1" ry="1" transform="translate(327.607 135.224)"/><ellipse cx=".348" cy=".342" rx="1" ry="1" transform="translate(185.713 4.73)"/><ellipse cx=".348" cy=".342" rx="1" ry="1" transform="translate(39.988 49.3)"/><ellipse cx=".348" cy=".342" rx="1" ry="1" transform="translate(151.83 96.59)"/><ellipse cx=".348" cy=".342" rx="1" ry="1" transform="translate(258.944 209.119)"/><ellipse cx=".348" cy=".342" rx="1" ry="1" transform="translate(151.28 180.656)"/><ellipse cx=".348" cy=".342" rx="1" ry="1" transform="translate(50.179 146.094)"/><ellipse cx=".348" cy=".342" rx="1" ry="1" transform="translate(.165 213.921)"/></g><g fill="#FAD8DF"><path d="M269.003 366.738a.069.069 0 0 1-.034.06.069.069 0 0 1-.07 0l-.677-.395a.07.07 0 0 0-.032-.01l-.772-.032a.07.07 0 0 1-.058-.035.07.07 0 0 1-.002-.069c.102-.19.318-.598.362-.682a.07.07 0 0 0 .008-.032l.002-.785a.069.069 0 1 1 .103-.06l.678.395a.07.07 0 0 0 .033.01l.771.032a.07.07 0 0 1 .058.036.07.07 0 0 1 .002.068l-.362.682a.07.07 0 0 0-.008.033l-.002.784zM196.575 292.642a.069.069 0 0 1-.034.06.069.069 0 0 1-.069 0l-.678-.395a.07.07 0 0 0-.032-.01l-.771-.031a.07.07 0 0 1-.059-.036.07.07 0 0 1-.001-.069l.362-.682a.07.07 0 0 0 .008-.032l.002-.784c0-.025.013-.048.034-.06a.069.069 0 0 1 .069 0l.678.395a.07.07 0 0 0 .032.009l.772.032a.07.07 0 0 1 .058.036.07.07 0 0 1 .001.068l-.362.682a.07.07 0 0 0-.008.033l-.002.784zM136.576 374.669a.069.069 0 0 1-.034.06.069.069 0 0 1-.069-.001l-.678-.394a.07.07 0 0 0-.032-.01l-.772-.032a.07.07 0 0 1-.058-.036.07.07 0 0 1-.001-.068l.362-.682a.07.07 0 0 0 .008-.033l.002-.784c0-.025.013-.048.034-.06a.069.069 0 0 1 .069 0l.678.395a.07.07 0 0 0 .032.01l.771.031a.07.07 0 0 1 .059.036.07.07 0 0 1 .001.069l-.362.682a.07.07 0 0 0-.008.032l-.002.785zM31.44 389.468a.069.069 0 0 1-.035.06.069.069 0 0 1-.07-.001l-.677-.394a.07.07 0 0 0-.032-.01l-.772-.032a.07.07 0 0 1-.058-.036.07.07 0 0 1-.002-.068l.362-.682a.07.07 0 0 0 .008-.033l.002-.784a.069.069 0 1 1 .103-.06l.678.395a.07.07 0 0 0 .033.01l.771.031a.07.07 0 0 1 .059.036.07.07 0 0 1 .001.069l-.362.682a.07.07 0 0 0-.008.032l-.002.785zM116.861 454.465a.069.069 0 0 1-.034.06.069.069 0 0 1-.07 0l-.677-.395a.07.07 0 0 0-.032-.009l-.772-.032a.07.07 0 0 1-.058-.036.07.07 0 0 1-.001-.068l.361-.682a.07.07 0 0 0 .008-.033l.002-.784a.069.069 0 1 1 .103-.06l.679.395a.07.07 0 0 0 .032.01l.771.031a.07.07 0 0 1 .059.036.07.07 0 0 1 .001.069l-.362.682a.07.07 0 0 0-.008.032l-.002.784zM288.894 475.939a.069.069 0 0 1-.034.06.069.069 0 0 1-.069-.001l-.678-.394a.07.07 0 0 0-.032-.01l-.771-.032a.07.07 0 0 1-.059-.036.07.07 0 0 1-.001-.068l.362-.682a.07.07 0 0 0 .008-.033l.002-.784c0-.025.013-.048.034-.06a.069.069 0 0 1 .069 0l.678.395a.07.07 0 0 0 .032.01l.772.032a.07.07 0 0 1 .058.035.07.07 0 0 1 .001.069l-.362.682a.07.07 0 0 0-.008.033l-.002.784zM382.97 398.509a.069.069 0 0 1-.034.06.069.069 0 0 1-.069 0l-.678-.395a.07.07 0 0 0-.032-.01l-.771-.032a.07.07 0 0 1-.059-.035.07.07 0 0 1-.001-.069l.362-.682a.07.07 0 0 0 .008-.033l.002-.784c0-.025.013-.047.034-.06a.069.069 0 0 1 .07.001l.677.394a.07.07 0 0 0 .032.01l.772.032a.07.07 0 0 1 .058.036.07.07 0 0 1 .001.068l-.361.682a.07.07 0 0 0-.009.033l-.001.784zM302.308 267.791a.069.069 0 0 1-.034.06.069.069 0 0 1-.07 0l-.677-.395a.07.07 0 0 0-.032-.01l-.772-.031a.07.07 0 0 1-.058-.036.07.07 0 0 1-.001-.069l.361-.682a.07.07 0 0 0 .009-.032l.001-.784a.069.069 0 1 1 .103-.06l.679.395a.07.07 0 0 0 .032.01l.771.031a.07.07 0 0 1 .059.036.07.07 0 0 1 .001.068l-.362.682a.07.07 0 0 0-.008.033l-.002.784zM144.558 556.675a.069.069 0 0 1-.034.06.069.069 0 0 1-.07 0l-.677-.395a.07.07 0 0 0-.032-.009l-.772-.032a.07.07 0 0 1-.058-.036.07.07 0 0 1-.002-.068l.362-.682a.07.07 0 0 0 .008-.033l.002-.784a.069.069 0 1 1 .103-.06l.678.395a.07.07 0 0 0 .033.01l.771.031a.07.07 0 0 1 .059.036.07.07 0 0 1 .001.069l-.362.682a.07.07 0 0 0-.008.032l-.002.784zM81.17 519.07a.069.069 0 0 1-.034.06.069.069 0 0 1-.07 0l-.677-.394a.07.07 0 0 0-.032-.01l-.772-.032a.07.07 0 0 1-.058-.035.07.07 0 0 1-.002-.069l.362-.682a.07.07 0 0 0 .008-.033l.002-.784a.069.069 0 1 1 .103-.06l.679.395a.07.07 0 0 0 .032.01l.771.032a.07.07 0 0 1 .059.036.07.07 0 0 1 .001.068l-.362.682a.07.07 0 0 0-.008.033l-.002.784z"/></g><g fill="#D3BED8" transform="rotate(-164.555 372.841 320.047)"><ellipse cx="347.974" cy="1.647" rx="1.469" ry="1.47"/><ellipse cx=".348" cy=".342" rx="1" ry="1" transform="translate(296.37 34.048)"/><ellipse cx=".348" cy=".342" rx="1" ry="1" transform="translate(327.607 135.225)"/><ellipse cx=".348" cy=".342" rx="1" ry="1" transform="translate(151.83 96.59)"/><ellipse cx=".348" cy=".342" rx="1" ry="1" transform="translate(258.944 209.119)"/><ellipse cx=".348" cy=".342" rx="1" ry="1" transform="translate(151.28 180.656)"/><ellipse cx=".348" cy=".342" rx="1" ry="1" transform="translate(50.179 146.094)"/><ellipse cx=".348" cy=".342" rx="1" ry="1" transform="translate(.165 213.921)"/></g><g fill="#FAD8DF"><path d="M585.463 598.973a.069.069 0 0 1-.067.018.069.069 0 0 1-.048-.05l-.197-.759a.07.07 0 0 0-.016-.03l-.52-.57a.07.07 0 0 1-.015-.067.07.07 0 0 1 .047-.049l.74-.223a.07.07 0 0 0 .029-.017l.558-.55a.069.069 0 0 1 .067-.018.069.069 0 0 1 .048.05l.197.759a.07.07 0 0 0 .016.03l.52.57a.07.07 0 0 1 .015.067.07.07 0 0 1-.047.049l-.74.223a.07.07 0 0 0-.028.017l-.559.55zM587.154 495.372a.069.069 0 0 1-.067.018.069.069 0 0 1-.048-.05l-.197-.758a.07.07 0 0 0-.016-.03l-.52-.57a.07.07 0 0 1-.016-.067.07.07 0 0 1 .048-.05l.74-.222a.07.07 0 0 0 .028-.018l.559-.55a.069.069 0 0 1 .066-.018.069.069 0 0 1 .049.05l.196.759a.07.07 0 0 0 .016.03l.52.57a.07.07 0 0 1 .016.067.07.07 0 0 1-.048.049l-.739.223a.07.07 0 0 0-.029.017l-.558.55zM486.65 510.453a.069.069 0 0 1-.066.017.069.069 0 0 1-.048-.05l-.197-.758a.07.07 0 0 0-.016-.03l-.52-.57a.07.07 0 0 1-.015-.067.07.07 0 0 1 .047-.05l.74-.222a.07.07 0 0 0 .028-.017l.559-.55a.069.069 0 0 1 .067-.018.069.069 0 0 1 .048.049l.197.76a.07.07 0 0 0 .015.029l.52.57a.07.07 0 0 1 .016.067.07.07 0 0 1-.047.05l-.74.222a.07.07 0 0 0-.029.017l-.558.55zM402.16 446.156a.069.069 0 0 1-.068.018.069.069 0 0 1-.048-.05l-.196-.759a.07.07 0 0 0-.016-.03l-.52-.57a.07.07 0 0 1-.016-.067.07.07 0 0 1 .048-.049l.739-.223a.07.07 0 0 0 .029-.017l.558-.55a.069.069 0 0 1 .067-.018.069.069 0 0 1 .048.05l.197.759a.07.07 0 0 0 .016.03l.52.57a.07.07 0 0 1 .016.067.07.07 0 0 1-.048.049l-.74.223a.07.07 0 0 0-.028.017l-.559.55zM416.076 552.59a.069.069 0 0 1-.066.017.069.069 0 0 1-.048-.05l-.197-.759a.07.07 0 0 0-.016-.03l-.52-.57a.07.07 0 0 1-.016-.067.07.07 0 0 1 .048-.049l.74-.222a.07.07 0 0 0 .028-.018l.559-.55a.069.069 0 0 1 .066-.018.069.069 0 0 1 .048.05l.197.759a.07.07 0 0 0 .016.03l.52.57a.07.07 0 0 1 .016.067.07.07 0 0 1-.048.049l-.74.223a.07.07 0 0 0-.028.017l-.559.55zM679.207 553.02a.069.069 0 0 1-.067.017.069.069 0 0 1-.048-.05l-.196-.759a.07.07 0 0 0-.016-.03l-.52-.57a.07.07 0 0 1-.016-.067.07.07 0 0 1 .048-.049l.739-.223a.07.07 0 0 0 .029-.017l.558-.55a.069.069 0 0 1 .067-.018.069.069 0 0 1 .048.05l.197.759a.07.07 0 0 0 .016.03l.52.57a.07.07 0 0 1 .016.067.07.07 0 0 1-.048.049l-.74.223a.07.07 0 0 0-.028.017l-.559.55zM345.056 572.685a.069.069 0 0 1-.067.017.069.069 0 0 1-.048-.049l-.196-.759a.07.07 0 0 0-.016-.03l-.52-.57a.07.07 0 0 1-.016-.067.07.07 0 0 1 .048-.05l.739-.222a.07.07 0 0 0 .029-.017l.558-.55a.069.069 0 0 1 .067-.018.069.069 0 0 1 .048.05l.197.758a.07.07 0 0 0 .016.03l.52.57a.07.07 0 0 1 .015.067.07.07 0 0 1-.047.05l-.74.222a.07.07 0 0 0-.028.017l-.559.55z"/></g><g fill="#D3BED8" transform="rotate(20.128 -563.464 2084.367)"><ellipse cx="347.974" cy="1.647" rx="1.469" ry="1.47"/><ellipse cx=".348" cy=".342" rx="1" ry="1" transform="translate(296.371 34.048)"/><ellipse cx=".348" cy=".342" rx="1" ry="1" transform="translate(327.607 135.225)"/><ellipse cx=".348" cy=".342" rx="1" ry="1" transform="translate(185.713 4.73)"/><ellipse cx=".348" cy=".342" rx="1" ry="1" transform="translate(39.988 49.3)"/><ellipse cx=".348" cy=".342" rx="1" ry="1" transform="translate(151.83 96.59)"/><ellipse cx=".348" cy=".342" rx="1" ry="1" transform="translate(258.944 209.119)"/><ellipse cx=".348" cy=".342" rx="1" ry="1" transform="translate(151.28 180.656)"/><ellipse cx=".348" cy=".342" rx="1" ry="1" transform="translate(50.179 146.094)"/><ellipse cx=".348" cy=".342" rx="1" ry="1" transform="translate(.165 213.921)"/></g><g fill="#FAD8DF"><path d="M733.657 454.648a.069.069 0 0 1 .067-.012c.023.009.04.029.044.053l.135.773a.07.07 0 0 0 .013.03l.472.612a.07.07 0 0 1 .01.068.07.07 0 0 1-.052.045l-.755.162a.07.07 0 0 0-.03.014l-.601.503a.069.069 0 0 1-.068.012.069.069 0 0 1-.044-.053l-.134-.772a.07.07 0 0 0-.014-.031l-.472-.611a.07.07 0 0 1-.01-.068.07.07 0 0 1 .052-.045l.755-.162a.07.07 0 0 0 .03-.015l.602-.503zM723.513 557.765a.069.069 0 0 1 .068-.012c.023.009.04.029.044.053l.134.773a.07.07 0 0 0 .014.03c.057.076.34.44.471.612a.07.07 0 0 1 .01.068.07.07 0 0 1-.051.045l-.755.161a.07.07 0 0 0-.03.015l-.602.503a.069.069 0 0 1-.068.012.069.069 0 0 1-.044-.053l-.134-.772a.07.07 0 0 0-.013-.031l-.472-.612a.07.07 0 0 1-.01-.067.07.07 0 0 1 .051-.045l.755-.162a.07.07 0 0 0 .03-.015l.602-.503zM824.912 550.94a.069.069 0 0 1 .068-.011c.023.008.04.028.044.053l.134.772a.07.07 0 0 0 .013.031l.472.612a.07.07 0 0 1 .01.067.07.07 0 0 1-.051.045l-.755.162a.07.07 0 0 0-.03.015l-.602.503a.069.069 0 0 1-.068.012.069.069 0 0 1-.044-.053l-.134-.773a.07.07 0 0 0-.014-.03c-.058-.076-.34-.44-.471-.612a.07.07 0 0 1-.01-.068.07.07 0 0 1 .05-.045l.756-.161a.07.07 0 0 0 .03-.015l.602-.503zM903.872 621.92a.069.069 0 0 1 .068-.011c.023.008.04.028.044.053l.134.772a.07.07 0 0 0 .013.031l.472.612a.07.07 0 0 1 .01.067.07.07 0 0 1-.051.045l-.755.162a.07.07 0 0 0-.03.015l-.602.503a.069.069 0 0 1-.068.012.069.069 0 0 1-.044-.053l-.134-.773a.07.07 0 0 0-.013-.03l-.472-.612a.07.07 0 0 1-.01-.068.07.07 0 0 1 .051-.045l.755-.161a.07.07 0 0 0 .03-.015l.602-.503zM898.69 514.707a.069.069 0 0 1 .069-.012c.023.008.04.028.044.053l.134.772a.07.07 0 0 0 .013.031l.472.612a.07.07 0 0 1 .01.067.07.07 0 0 1-.051.045l-.755.162a.07.07 0 0 0-.03.015l-.602.503a.069.069 0 0 1-.068.012.069.069 0 0 1-.044-.053l-.134-.773a.07.07 0 0 0-.014-.03c-.058-.076-.34-.44-.471-.612a.07.07 0 0 1-.01-.068.07.07 0 0 1 .05-.045l.756-.161a.07.07 0 0 0 .03-.015l.602-.503zM804.472 369.175a.069.069 0 0 1 .068-.012c.023.009.04.029.044.053l.134.773a.07.07 0 0 0 .013.03l.472.612a.07.07 0 0 1 .01.068.07.07 0 0 1-.051.045l-.755.161a.07.07 0 0 0-.03.015l-.602.503a.069.069 0 0 1-.068.012.069.069 0 0 1-.044-.053l-.134-.772a.07.07 0 0 0-.013-.031l-.472-.612a.07.07 0 0 1-.01-.067.07.07 0 0 1 .051-.045l.755-.162a.07.07 0 0 0 .03-.015l.602-.503zM684.673 346.951a.069.069 0 0 1 .068-.012c.023.009.04.029.044.054l.134.772a.07.07 0 0 0 .013.03l.472.612a.07.07 0 0 1 .01.068.07.07 0 0 1-.051.045l-.755.162a.07.07 0 0 0-.03.014l-.602.503a.069.069 0 0 1-.068.013.069.069 0 0 1-.044-.054l-.134-.772a.07.07 0 0 0-.014-.03c-.057-.076-.34-.44-.471-.612a.07.07 0 0 1-.01-.068.07.07 0 0 1 .051-.045l.755-.162a.07.07 0 0 0 .03-.015c.074-.06.43-.36.602-.503zM636.473 492.795a.069.069 0 0 1 .068-.012c.023.008.04.029.044.053l.134.773a.07.07 0 0 0 .014.03l.472.612a.07.07 0 0 1 .01.068.07.07 0 0 1-.052.045l-.755.161a.07.07 0 0 0-.03.015l-.602.503a.069.069 0 0 1-.068.012.069.069 0 0 1-.043-.053l-.135-.772a.07.07 0 0 0-.013-.031l-.472-.612a.07.07 0 0 1-.01-.067.07.07 0 0 1 .052-.045l.755-.162a.07.07 0 0 0 .03-.015l.601-.503zM959.133 427.754a.069.069 0 0 1 .068-.012c.023.008.04.028.044.053l.134.773a.07.07 0 0 0 .013.03l.472.612a.07.07 0 0 1 .01.067.07.07 0 0 1-.051.045l-.755.162a.07.07 0 0 0-.03.015l-.602.503a.069.069 0 0 1-.068.012.069.069 0 0 1-.044-.053l-.134-.773a.07.07 0 0 0-.014-.03c-.057-.075-.34-.44-.471-.612a.07.07 0 0 1-.01-.067.07.07 0 0 1 .051-.046l.755-.161a.07.07 0 0 0 .03-.015l.602-.503zM971.115 500.477a.069.069 0 0 1 .068-.012c.023.008.04.028.044.053l.134.772a.07.07 0 0 0 .013.031l.472.611a.07.07 0 0 1 .01.068.07.07 0 0 1-.051.045l-.755.162a.07.07 0 0 0-.03.015l-.602.503a.069.069 0 0 1-.068.012.069.069 0 0 1-.044-.053l-.134-.773a.07.07 0 0 0-.014-.03c-.058-.076-.34-.44-.471-.612a.07.07 0 0 1-.01-.068.07.07 0 0 1 .05-.045l.756-.162a.07.07 0 0 0 .03-.014l.602-.503z"/></g><g><g fill="#D3BED8" transform="rotate(110.008 310.141 345.23)"><ellipse cx="347.974" cy="1.647" rx="1.469" ry="1.47"/><ellipse cx=".348" cy=".342" rx="1" ry="1" transform="translate(296.37 34.048)"/><ellipse cx=".348" cy=".342" rx="1" ry="1" transform="translate(327.607 135.224)"/><ellipse cx=".348" cy=".342" rx="1" ry="1" transform="translate(185.713 4.73)"/><ellipse cx=".348" cy=".342" rx="1" ry="1" transform="translate(39.988 49.3)"/><ellipse cx=".348" cy=".342" rx="1" ry="1" transform="translate(151.83 96.59)"/><ellipse cx=".348" cy=".342" rx="1" ry="1" transform="translate(258.944 209.119)"/><ellipse cx=".348" cy=".342" rx="1" ry="1" transform="translate(151.28 180.656)"/><ellipse cx=".348" cy=".342" rx="1" ry="1" transform="translate(50.179 146.093)"/><ellipse cx=".348" cy=".342" rx="1" ry="1" transform="translate(.165 213.921)"/></g><g fill="#FAD8DF"><path d="M607.31 223.006c.016.019.02.045.013.068a.069.069 0 0 1-.054.044l-.772.135a.07.07 0 0 0-.03.014l-.611.473a.07.07 0 0 1-.068.01.07.07 0 0 1-.045-.051l-.163-.755a.07.07 0 0 0-.015-.03l-.504-.6a.069.069 0 0 1-.012-.068.069.069 0 0 1 .053-.045l.772-.135a.07.07 0 0 0 .03-.014l.611-.473a.07.07 0 0 1 .068-.01.07.07 0 0 1 .045.051l.163.755a.07.07 0 0 0 .015.03l.504.6zM504.172 213.079c.016.019.021.044.013.067a.069.069 0 0 1-.053.045l-.773.135a.07.07 0 0 0-.03.014l-.61.473a.07.07 0 0 1-.068.01.07.07 0 0 1-.046-.051l-.163-.755a.07.07 0 0 0-.015-.03l-.504-.6a.069.069 0 0 1-.012-.069.069.069 0 0 1 .053-.044l.772-.135a.07.07 0 0 0 .03-.014l.611-.473a.07.07 0 0 1 .068-.01.07.07 0 0 1 .045.051l.163.755a.07.07 0 0 0 .015.03l.504.6zM511.21 314.462c.015.02.02.045.012.068a.069.069 0 0 1-.053.044l-.773.136a.07.07 0 0 0-.03.014l-.61.473a.07.07 0 0 1-.068.01.07.07 0 0 1-.046-.051l-.163-.755a.07.07 0 0 0-.015-.03l-.504-.6a.069.069 0 0 1-.012-.069.069.069 0 0 1 .053-.044l.772-.136a.07.07 0 0 0 .03-.013l.611-.473a.07.07 0 0 1 .068-.01.07.07 0 0 1 .045.051l.163.755a.07.07 0 0 0 .015.03l.504.6zM440.395 393.571c.016.02.02.045.013.068a.069.069 0 0 1-.054.044l-.772.136a.07.07 0 0 0-.03.013l-.61.473a.07.07 0 0 1-.069.01.07.07 0 0 1-.045-.05l-.163-.755a.07.07 0 0 0-.015-.03l-.504-.601a.069.069 0 0 1-.012-.068.069.069 0 0 1 .053-.044l.772-.136a.07.07 0 0 0 .03-.013l.611-.473a.07.07 0 0 1 .068-.01.07.07 0 0 1 .045.05l.163.756a.07.07 0 0 0 .015.03l.504.6zM547.598 388.165c.016.02.02.045.012.068a.069.069 0 0 1-.053.044l-.772.136a.07.07 0 0 0-.03.013l-.611.473a.07.07 0 0 1-.068.01.07.07 0 0 1-.045-.05l-.163-.755a.07.07 0 0 0-.015-.03l-.504-.601a.069.069 0 0 1-.013-.068.069.069 0 0 1 .053-.044l.773-.136a.07.07 0 0 0 .03-.013l.61-.473a.07.07 0 0 1 .068-.01.07.07 0 0 1 .046.05l.163.756a.07.07 0 0 0 .015.03l.504.6zM692.932 293.642a.069.069 0 0 1-.04.112l-.774.135a.07.07 0 0 0-.03.014l-.61.473a.07.07 0 0 1-.068.01.07.07 0 0 1-.046-.051l-.163-.755a.07.07 0 0 0-.015-.03l-.504-.6a.069.069 0 0 1-.012-.068.069.069 0 0 1 .053-.045l.772-.135a.07.07 0 0 0 .031-.014l.61-.473a.07.07 0 0 1 .068-.01.07.07 0 0 1 .045.051l.163.755a.07.07 0 0 0 .015.03l.505.6zM714.904 173.796c.016.02.02.045.012.068a.069.069 0 0 1-.053.044l-.772.136a.07.07 0 0 0-.03.014l-.611.473a.07.07 0 0 1-.068.01.07.07 0 0 1-.045-.051l-.163-.755a.07.07 0 0 0-.015-.03l-.504-.6a.069.069 0 0 1-.013-.069.069.069 0 0 1 .053-.044l.773-.136a.07.07 0 0 0 .03-.013l.61-.473a.07.07 0 0 1 .068-.01.07.07 0 0 1 .046.051l.163.755a.07.07 0 0 0 .015.03l.504.6zM568.96 125.903a.069.069 0 0 1-.04.112l-.773.136a.07.07 0 0 0-.031.013l-.61.473a.07.07 0 0 1-.068.01.07.07 0 0 1-.045-.051l-.164-.755a.07.07 0 0 0-.014-.03l-.505-.6a.069.069 0 0 1-.012-.068.069.069 0 0 1 .053-.044l.773-.136a.07.07 0 0 0 .03-.014l.61-.473a.07.07 0 0 1 .068-.01.07.07 0 0 1 .045.051l.164.755a.07.07 0 0 0 .015.03l.504.6zM634.677 448.425c.016.019.02.045.013.068a.069.069 0 0 1-.054.044l-.772.136a.07.07 0 0 0-.03.013l-.611.473a.07.07 0 0 1-.068.01.07.07 0 0 1-.045-.051l-.163-.755a.07.07 0 0 0-.015-.03l-.504-.6a.069.069 0 0 1-.012-.068.069.069 0 0 1 .053-.044l.772-.136a.07.07 0 0 0 .03-.014l.611-.473a.07.07 0 0 1 .068-.01.07.07 0 0 1 .045.051l.163.755a.07.07 0 0 0 .015.03l.504.6zM561.98 460.56c.016.018.02.044.012.067a.069.069 0 0 1-.053.044l-.772.136a.07.07 0 0 0-.031.013l-.61.473a.07.07 0 0 1-.068.01.07.07 0 0 1-.045-.05l-.163-.755a.07.07 0 0 0-.015-.03l-.505-.601a.069.069 0 0 1-.012-.068.069.069 0 0 1 .053-.044l.773-.136a.07.07 0 0 0 .03-.013l.61-.473a.07.07 0 0 1 .068-.01.07.07 0 0 1 .045.05l.164.755a.07.07 0 0 0 .015.03l.504.601z"/></g></g><g><g fill="#D3BED8" transform="rotate(58.782 461.89 756.705)"><ellipse cx="226.39" cy="1.647" rx="1.469" ry="1.47"/><ellipse cx=".333" cy=".342" rx="1" ry="1" transform="translate(192.378 34.048)"/><ellipse cx=".333" cy=".342" rx="1" ry="1" transform="translate(212.654 135.224)"/><ellipse cx=".333" cy=".342" rx="1" ry="1" transform="translate(120.548 4.73)"/><ellipse cx=".333" cy=".342" rx="1" ry="1" transform="translate(25.957 49.3)"/><ellipse cx=".333" cy=".342" rx="1" ry="1" transform="translate(98.555 96.59)"/><ellipse cx=".333" cy=".342" rx="1" ry="1" transform="translate(168.084 209.118)"/><ellipse cx=".333" cy=".342" rx="1" ry="1" transform="translate(98.198 180.656)"/><ellipse cx=".333" cy=".342" rx="1" ry="1" transform="translate(32.572 146.093)"/><ellipse cx=".333" cy=".342" rx="1" ry="1" transform="translate(.107 213.92)"/></g><g fill="#FAD8DF"><path d="M808.637 77.209c.026-.008.05-.002.06.014.009.016.003.04-.016.058-.142.146-.368.377-.418.43a.075.075 0 0 0-.016.022l-.194.448a.085.085 0 0 1-.034.037.085.085 0 0 1-.049.013l-.487-.035c-.008 0-.018 0-.027.003l-.574.173c-.026.007-.049.002-.059-.014-.01-.016-.003-.04.015-.059l.419-.429a.075.075 0 0 0 .015-.022l.194-.448a.085.085 0 0 1 .035-.037.085.085 0 0 1 .048-.013l.488.035c.008 0 .017 0 .026-.003l.574-.173zM731.586 143.61c.026-.008.05-.002.06.014.009.016.003.04-.016.058-.142.146-.368.377-.418.43a.075.075 0 0 0-.016.022l-.194.448a.085.085 0 0 1-.034.037.085.085 0 0 1-.049.013l-.487-.035c-.008 0-.018 0-.027.003l-.574.173c-.026.007-.049.002-.059-.014-.01-.016-.003-.04.015-.059l.419-.429a.075.075 0 0 0 .015-.022l.194-.448a.085.085 0 0 1 .035-.037.085.085 0 0 1 .048-.014l.488.036c.008 0 .017 0 .026-.003l.574-.173zM798.147 173.751c.026-.008.05-.002.059.014.01.016.004.04-.015.059l-.419.428a.075.075 0 0 0-.015.023l-.194.448a.085.085 0 0 1-.034.037.085.085 0 0 1-.05.013l-.486-.035c-.009 0-.018 0-.027.003l-.574.173c-.026.008-.05.002-.06-.014-.009-.016-.003-.04.016-.059l.419-.428a.075.075 0 0 0 .015-.023l.194-.448a.085.085 0 0 1 .034-.037.085.085 0 0 1 .049-.013l.487.035c.009 0 .018 0 .027-.003.07-.02.379-.114.574-.173zM797.55 248.925c.025-.008.048-.003.058.013.01.017.004.04-.015.06l-.419.428a.075.075 0 0 0-.015.022l-.194.448a.085.085 0 0 1-.034.038.085.085 0 0 1-.049.013c-.128-.01-.422-.03-.487-.036-.009 0-.018 0-.027.004l-.574.172c-.026.008-.05.003-.059-.014-.01-.016-.004-.039.015-.058l.419-.429a.075.075 0 0 0 .015-.022l.194-.448a.085.085 0 0 1 .034-.038.085.085 0 0 1 .05-.013c.127.01.422.03.486.036.009 0 .018 0 .027-.004l.574-.172zM868.065 174.493c.026-.008.05-.002.059.014.01.016.004.04-.015.058l-.419.43a.075.075 0 0 0-.015.021l-.194.449a.085.085 0 0 1-.034.037.085.085 0 0 1-.05.013l-.486-.035c-.009-.001-.018 0-.027.003-.07.02-.38.114-.574.173-.026.007-.05.002-.059-.014-.01-.016-.004-.04.015-.059l.419-.429a.075.075 0 0 0 .015-.022l.194-.448a.085.085 0 0 1 .034-.037.085.085 0 0 1 .05-.014l.486.036c.009 0 .018 0 .027-.003l.574-.173zM910.584 43.567c.026-.008.05-.002.059.014.01.016.004.04-.015.058l-.419.43a.075.075 0 0 0-.015.021l-.194.449a.085.085 0 0 1-.034.037.085.085 0 0 1-.05.013l-.486-.035c-.009-.001-.018 0-.027.003-.07.02-.38.114-.574.173-.026.007-.05.002-.059-.014-.01-.016-.004-.04.015-.059l.419-.429a.075.075 0 0 0 .015-.022l.194-.448a.085.085 0 0 1 .034-.037.085.085 0 0 1 .05-.014l.486.036c.009 0 .018 0 .027-.003l.574-.173zM723.124 69.74c.026-.009.05-.003.06.013.009.016.003.04-.016.059l-.418.428a.075.075 0 0 0-.016.023l-.194.448a.085.085 0 0 1-.034.037.085.085 0 0 1-.049.013l-.487-.035c-.009 0-.018 0-.027.003l-.574.173c-.026.008-.05.002-.059-.014-.01-.016-.003-.04.015-.059l.419-.428a.075.075 0 0 0 .015-.023l.194-.448a.085.085 0 0 1 .034-.037.085.085 0 0 1 .05-.013l.487.035c.008 0 .017 0 .026-.003l.574-.173zM964.7 136.291c.025-.007.048-.002.058.014.01.016.004.04-.015.059l-.419.429a.075.075 0 0 0-.015.022l-.194.448a.085.085 0 0 1-.034.037.085.085 0 0 1-.05.014l-.486-.036c-.009 0-.018 0-.027.003l-.574.173c-.026.008-.05.002-.059-.014-.01-.016-.004-.04.015-.058l.419-.43a.075.075 0 0 0 .015-.021l.194-.449a.085.085 0 0 1 .034-.037.085.085 0 0 1 .05-.013l.486.035c.009.001.018 0 .027-.003.07-.02.38-.114.574-.173zM922.035 189.681c.026-.008.05-.002.059.014.01.016.004.04-.015.059l-.419.428a.075.075 0 0 0-.015.023l-.194.448a.085.085 0 0 1-.034.037.085.085 0 0 1-.05.013l-.486-.035c-.009 0-.018 0-.027.003l-.574.173c-.026.008-.05.002-.059-.014-.01-.016-.004-.04.015-.059l.419-.428a.075.075 0 0 0 .015-.023l.194-.448a.085.085 0 0 1 .034-.037.085.085 0 0 1 .05-.013l.486.035c.009 0 .018 0 .027-.003.07-.02.38-.114.574-.173z"/></g></g><g><g fill="#D3BED8" transform="rotate(58.782 217.983 290.93)"><ellipse cx="82.341" cy="1.647" rx="1.469" ry="1.47"/><ellipse cx=".345" cy=".342" rx="1" ry="1" transform="translate(63.43 135.224)"/><ellipse cx=".345" cy=".342" rx="1" ry="1" transform="translate(.056 209.118)"/></g><g fill="#FAD8DF"><path d="M202.23 101.732a.063.063 0 0 1 .06.03.063.063 0 0 1-.003.066l-.395.624a.068.068 0 0 0-.011.03l-.06.689a.072.072 0 0 1-.035.054.072.072 0 0 1-.065.006l-.638-.265a.068.068 0 0 0-.032-.005l-.736.062a.063.063 0 0 1-.06-.029.063.063 0 0 1 .002-.067l.396-.623c.006-.01.01-.02.01-.03l.06-.69a.072.072 0 0 1 .035-.054.072.072 0 0 1 .065-.006l.638.266c.01.004.021.005.032.004l.736-.062zM266.818 17.52a.063.063 0 0 1 .06.03.063.063 0 0 1-.002.067l-.396.623a.068.068 0 0 0-.01.03l-.06.69a.072.072 0 0 1-.035.054.072.072 0 0 1-.065.006l-.638-.266a.068.068 0 0 0-.032-.004l-.736.062a.063.063 0 0 1-.06-.03.063.063 0 0 1 .002-.066l.396-.624c.005-.01.01-.02.01-.03l.06-.689a.072.072 0 0 1 .035-.054.072.072 0 0 1 .065-.006l.638.265c.01.004.02.006.032.005l.736-.062zM329.745 47.487a.063.063 0 0 1 .06.03.063.063 0 0 1-.002.066l-.396.624a.068.068 0 0 0-.01.03l-.06.689a.072.072 0 0 1-.036.054.072.072 0 0 1-.064.006l-.639-.265a.068.068 0 0 0-.031-.005l-.737.062a.063.063 0 0 1-.06-.029.063.063 0 0 1 .002-.067l.396-.623c.006-.01.01-.02.01-.03l.06-.69a.072.072 0 0 1 .036-.054.072.072 0 0 1 .064-.006l.639.266c.01.004.02.005.031.005l.737-.063z"/></g></g><g><g fill="#D3BED8" transform="rotate(154.172 249.691 218.352)"><ellipse cx="192.096" cy="1.62" rx="1.469" ry="1.47"/><ellipse cx=".329" cy=".336" rx="1" ry="1" transform="translate(163.046 28.856)"/><ellipse cx=".329" cy=".336" rx="1" ry="1" transform="translate(180.23 114.607)"/><ellipse cx=".329" cy=".336" rx="1" ry="1" transform="translate(102.168 4.01)"/><ellipse cx=".329" cy=".336" rx="1" ry="1" transform="translate(21.999 41.784)"/><ellipse cx=".329" cy=".336" rx="1" ry="1" transform="translate(83.528 81.863)"/><ellipse cx=".329" cy=".336" rx="1" ry="1" transform="translate(142.455 177.234)"/><ellipse cx=".329" cy=".336" rx="1" ry="1" transform="translate(83.226 153.111)"/><ellipse cx=".329" cy=".336" rx="1" ry="1" transform="translate(27.605 123.818)"/><ellipse cx=".329" cy=".336" rx="1" ry="1" transform="translate(.09 181.304)"/></g><g fill="#FAD8DF"><path d="M483.572 246.001c.004.022-.003.041-.017.048-.015.007-.035.001-.05-.016l-.261-.301a.061.061 0 0 0-.018-.015l-.302-.157a.069.069 0 0 1-.028-.03.068.068 0 0 1-.007-.042l.064-.334a.06.06 0 0 0 0-.023l-.074-.393c-.004-.022.003-.04.018-.048.014-.007.034 0 .049.016l.262.302a.061.061 0 0 0 .017.014l.302.157a.069.069 0 0 1 .029.031.068.068 0 0 1 .006.042l-.064.334a.06.06 0 0 0 0 .022l.074.393zM433.679 175.7c.004.022-.003.042-.018.049-.015.007-.034 0-.049-.017l-.262-.301a.061.061 0 0 0-.017-.014l-.302-.157a.069.069 0 0 1-.029-.031.068.068 0 0 1-.006-.042l.064-.334a.06.06 0 0 0 0-.022l-.074-.393c-.005-.022.002-.041.017-.049.015-.007.034 0 .05.017l.261.301a.061.061 0 0 0 .018.015l.301.156a.069.069 0 0 1 .029.031.068.068 0 0 1 .007.042l-.065.334a.06.06 0 0 0 0 .023l.075.392zM402.947 229.463c.004.022-.003.041-.018.049-.014.007-.034 0-.049-.017l-.262-.301a.061.061 0 0 0-.017-.015l-.302-.156a.069.069 0 0 1-.029-.031.068.068 0 0 1-.006-.042l.064-.334a.06.06 0 0 0 0-.023l-.074-.392c-.004-.022.003-.042.017-.049.015-.007.035 0 .05.017l.261.301a.061.061 0 0 0 .018.014l.302.157a.069.069 0 0 1 .028.031.068.068 0 0 1 .007.042l-.064.334a.06.06 0 0 0 0 .023l.074.392zM339.565 222.974c.004.022-.003.041-.018.048-.015.007-.034 0-.049-.016l-.262-.302a.061.061 0 0 0-.017-.014l-.302-.157a.069.069 0 0 1-.029-.03.068.068 0 0 1-.006-.042l.064-.334a.06.06 0 0 0 0-.023l-.074-.393c-.005-.022.003-.04.017-.048.015-.007.034 0 .05.016.092.108.227.263.261.302a.061.061 0 0 0 .018.014l.301.157a.069.069 0 0 1 .029.031.068.068 0 0 1 .007.042l-.065.334a.06.06 0 0 0 0 .022l.075.393zM396.755 288.4c.004.022-.003.04-.018.048-.015.007-.034 0-.049-.016l-.262-.302a.061.061 0 0 0-.017-.014l-.302-.157a.069.069 0 0 1-.029-.03.068.068 0 0 1-.006-.043l.064-.334a.06.06 0 0 0 0-.022l-.074-.393c-.005-.022.003-.041.017-.048.015-.007.034 0 .05.016l.261.302a.061.061 0 0 0 .018.014l.301.157a.069.069 0 0 1 .029.03.068.068 0 0 1 .007.042l-.065.334a.06.06 0 0 0 0 .023l.075.393zM503.842 334.7c.005.022-.002.041-.017.048-.015.008-.034.001-.05-.016l-.261-.301a.061.061 0 0 0-.018-.015l-.301-.156a.069.069 0 0 1-.029-.031.068.068 0 0 1-.007-.042l.065-.334a.06.06 0 0 0 0-.023l-.075-.393c-.004-.021.003-.04.018-.048.015-.007.034 0 .049.016l.262.302a.061.061 0 0 0 .017.014l.302.157a.069.069 0 0 1 .029.031.068.068 0 0 1 .006.042l-.064.334a.06.06 0 0 0 0 .022l.074.393zM555.812 290.377c.004.022-.003.04-.018.048-.015.007-.034 0-.049-.016l-.262-.302a.061.061 0 0 0-.017-.014l-.302-.157a.069.069 0 0 1-.029-.031.068.068 0 0 1-.006-.042l.064-.334a.06.06 0 0 0 0-.022l-.074-.393c-.004-.022.003-.041.017-.048.015-.007.035 0 .05.016l.261.302a.061.061 0 0 0 .018.014l.302.157a.069.069 0 0 1 .028.03.068.068 0 0 1 .007.042l-.064.334a.06.06 0 0 0 0 .023l.074.393zM496.683 174.441c.004.022-.003.042-.017.049-.015.007-.035 0-.05-.017l-.261-.301a.061.061 0 0 0-.018-.014l-.302-.157a.069.069 0 0 1-.028-.031.068.068 0 0 1-.007-.042l.064-.334a.06.06 0 0 0 0-.022l-.074-.393c-.004-.022.003-.041.018-.048.014-.008.034-.001.049.016l.261.301a.061.061 0 0 0 .018.015l.302.156a.069.069 0 0 1 .028.031.068.068 0 0 1 .007.042l-.064.334a.06.06 0 0 0 0 .023l.074.392zM421.295 372.98c.004.021-.003.04-.018.047-.014.007-.034.001-.049-.016l-.261-.301a.061.061 0 0 0-.018-.015l-.302-.157a.069.069 0 0 1-.028-.03.068.068 0 0 1-.007-.042l.064-.334a.06.06 0 0 0 0-.023l-.074-.393c-.004-.022.003-.04.018-.048.014-.007.034 0 .048.016l.262.302a.061.061 0 0 0 .018.014l.302.157a.069.069 0 0 1 .028.031.068.068 0 0 1 .007.042l-.064.334a.06.06 0 0 0 0 .022l.074.393zM379.642 332.73c.004.021-.003.04-.017.048-.015.007-.034 0-.05-.016-.092-.108-.227-.263-.261-.302a.061.061 0 0 0-.018-.014l-.301-.157a.069.069 0 0 1-.03-.031.068.068 0 0 1-.006-.042l.064-.334a.06.06 0 0 0 0-.022l-.074-.393c-.004-.022.003-.041.018-.048.015-.008.034-.001.049.016l.262.301a.061.061 0 0 0 .017.015l.302.156a.069.069 0 0 1 .029.031.068.068 0 0 1 .006.042l-.064.334a.06.06 0 0 0 0 .023l.074.393z"/></g></g><g><ellipse cx="256.342" cy="256.131" fill="#E72A53" fill-opacity=".2" rx="255.961" ry="256.097" transform="rotate(25 -63.587 1830.666)"/><ellipse cx="241.263" cy="241.037" fill="#E72A53" fill-opacity=".2" rx="240.905" ry="241.033" transform="rotate(25 -105.17 1857.118)"/><ellipse cx="225.457" cy="225.695" fill="#E72A53" rx="225.122" ry="225.241" transform="rotate(25 -147.672 1885.102)"/><path fill="#FF4E6B" d="M1062.383 685.837C998.232 760.367 890.027 786.562 796.607 743c-92.84-43.292-142.29-142.046-127.348-238.521 29.027 18.356 98.48 53.518 194.015 146.891 77.11 75.367 131.085 59.106 199.109 34.467zM1094.388 440.616c25.146 52.012 30.211 113.276 10.513 170.874-22.045-19.454-47.043-38.95-72.122-53.27-73.26-41.833-183.519-41.43-297.415-79.966-25.04-8.473-41.57-15.667-52.837-22.394a226.173 226.173 0 0 1 5.237-12.14c20.44-43.832 53.22-78.003 92.276-100.304a1713.6 1713.6 0 0 0 22.498 14.972c122.167 79.978 172.21 47.602 273.09 76.234 6.697 1.901 12.94 3.905 18.76 5.994z"/></g></g></g></g></svg>